<svg width="21" height="27" viewBox="0 0 21 27" fill="none" xmlns="http://www.w3.org/2000/svg">
<path d="M0 17.086V15.0966C0 14.8381 0.209575 14.6285 0.4681 14.6285H4.48207C4.64238 14.6285 4.79153 14.5465 4.87738 14.4111L5.97066 12.6871C6.12361 12.4459 6.45501 12.3967 6.67142 12.5831L8.02171 13.7458C8.21401 13.9114 8.23934 14.2 8.07882 14.3966L5.64065 17.3821C5.55175 17.491 5.41864 17.5541 5.27809 17.5541H0.4681C0.209576 17.5541 0 17.3446 0 17.086Z" fill="#232121"/>
<path d="M2.51347 20.4116L2.27986 20.7387C1.99823 21.133 2.1185 21.6842 2.53878 21.9253L5.13767 23.4165C5.2593 23.4863 5.3968 23.5237 5.53702 23.5251L16.6409 23.6378C16.7782 23.6392 16.9136 23.6061 17.0347 23.5415L19.5973 22.1748C20.012 21.9536 20.156 21.4294 19.9123 21.0274L19.6044 20.5194C19.3742 20.1395 18.8831 20.0124 18.4975 20.2328L17.29 20.9227C17.1928 20.9782 17.0856 21.0137 16.9741 21.0233C16.5676 21.058 15.8726 21.0878 15.3873 21.0069C14.8256 20.9132 14.8412 20.3827 14.9192 20.1292C15.1533 19.037 15.6565 16.7823 15.7969 16.5015C15.925 16.2453 15.7707 15.8073 15.6538 15.5695C15.633 15.5272 15.607 15.4887 15.5777 15.4518C14.9551 14.6683 13.6795 13.0583 13.2224 12.4641C12.7543 11.8555 13.1443 11.3913 13.3979 11.2353C14.2366 10.6697 16.2065 9.30441 17.3767 8.36818C18.547 7.43195 17.9424 6.49579 17.4938 6.14474L12.3146 2.28787C12.112 2.13703 11.8512 2.08805 11.6077 2.15513L7.07988 3.40261C6.63189 3.52603 6.37615 3.99699 6.5166 4.43995L6.79985 5.33328C6.92541 5.72925 7.32718 5.96843 7.73181 5.87447C8.34406 5.7323 9.16244 5.51912 9.88714 5.26705C10.8543 4.93066 11.4531 4.9153 12.1163 5.17015C12.2671 5.22812 12.3891 5.34116 12.4723 5.47974C12.695 5.85092 12.5839 6.33039 12.2116 6.55135C10.8093 7.38378 8.71219 8.49861 8.01474 9.24587C7.07931 10.2481 7.25408 11.4108 8.01474 12.113L12.6285 16.184C12.8507 16.38 12.9497 16.6808 12.8874 16.9706L12.1328 20.4771C12.0516 20.8545 11.718 21.1239 11.3319 21.1239H5.63758C5.50785 21.1239 5.37997 21.0931 5.26447 21.034L3.55318 20.1585C3.19176 19.9736 2.74944 20.0813 2.51347 20.4116Z" fill="#232121"/>
<circle cx="18.3719" cy="2.22348" r="2.22348" fill="#232121"/>
<circle cx="15.2131" cy="25.3947" r="1.28728" fill="#232121"/>
<circle cx="7.01774" cy="25.3947" r="1.28728" fill="#232121"/>
<path d="M15.49 11.8524C15.3421 11.6545 15.3734 11.3757 15.5616 11.2157L16.5903 10.3406C16.7767 10.1821 17.0536 10.1938 17.2259 10.3674L18.818 11.9714C19.0159 12.1707 18.9949 12.4982 18.7732 12.6707L17.4603 13.6917C17.2535 13.8526 16.9549 13.8123 16.798 13.6024L15.49 11.8524Z" fill="#232121"/>
</svg>
