<svg width="32" height="32" viewBox="0 0 32 32" fill="none" xmlns="http://www.w3.org/2000/svg">
<rect width="32" height="32" rx="5" fill="#8FC857"/>
<path d="M10.9336 11.1156C10.9413 10.8 11.018 8.86472 12.6311 7.47297C13.9538 6.33108 15.4606 6.28615 15.865 6.28615C16.2803 6.28505 17.7521 6.33108 19.0572 7.43133C20.7098 8.82417 20.7898 10.8033 20.7975 11.1156" stroke="black" stroke-width="0.0346973" stroke-miterlimit="10"/>
<path d="M11.1328 11.1155C11.1394 10.8131 11.2139 8.95776 12.7613 7.6219C14.0292 6.52713 15.4746 6.4833 15.8626 6.48439C16.2604 6.4833 17.6718 6.52713 18.9244 7.58245C20.509 8.91831 20.5857 10.8152 20.5923 11.1155" stroke="black" stroke-width="0.0346973" stroke-miterlimit="10"/>
<path d="M15.8876 25.955C15.4722 25.9561 14.0005 25.91 12.6953 24.8098C11.0427 23.4169 10.9627 21.4378 10.9551 21.1255" stroke="black" stroke-width="0.0346973" stroke-miterlimit="10"/>
<path d="M15.888 25.7566C15.4902 25.7577 14.0787 25.7139 12.8261 24.6586C11.2415 23.3227 11.1648 21.4258 11.1582 21.1255" stroke="black" stroke-width="0.0346973" stroke-miterlimit="10"/>
<path d="M15.8742 5.70629V4.8833H9.76367V11.1725H10.4069C10.4069 8.15226 12.8551 5.7052 15.8742 5.7052V5.70629Z" fill="black"/>
<path d="M15.8887 5.70629V4.8833H21.9992V11.1725H21.3559C21.3559 8.15226 18.9078 5.7052 15.8887 5.7052V5.70629Z" fill="black"/>
<path d="M16.3672 15.8726V15.1143H16.5184C19.5441 15.1143 21.9977 17.5679 21.9977 20.5936V20.9103H21.4049C21.4049 18.1279 19.1496 15.8726 16.3672 15.8726Z" fill="black"/>
<path d="M15.8887 26.5087V27.3316H21.9992V21.0425H21.3559C21.3559 24.0627 18.9078 26.5097 15.8887 26.5097V26.5087Z" fill="black"/>
<path d="M15.8742 26.5087V27.3316H9.76367V21.0425H10.4069C10.4069 24.0627 12.8551 26.5097 15.8742 26.5097V26.5087Z" fill="black"/>
<path d="M15.3942 16.36V17.1183H15.243C12.2173 17.1183 9.76367 14.6647 9.76367 11.639V11.3223H10.3565C10.3565 14.1047 12.6118 16.36 15.3942 16.36Z" fill="black"/>
<path d="M21.3164 5.21768C21.3142 5.18919 21.3077 5.1585 21.3537 5.16288C21.3822 5.15412 21.4107 5.15193 21.4392 5.16508C21.4468 5.17713 21.4556 5.19028 21.4633 5.20234C21.471 5.2122 21.472 5.22425 21.4699 5.23521C21.4655 5.25932 21.4885 5.2922 21.4556 5.30644C21.4216 5.32069 21.4063 5.28672 21.38 5.2637C21.3712 5.32507 21.3208 5.37877 21.3745 5.43795C21.3778 5.46425 21.3778 5.49055 21.3756 5.51685C21.3712 5.55192 21.3592 5.58589 21.3526 5.61986C21.3438 5.64726 21.3318 5.67465 21.3263 5.70315C21.3022 5.8215 21.323 5.83903 21.4468 5.80177C21.4545 5.78862 21.4556 5.77328 21.4556 5.75794C21.4578 5.70753 21.4414 5.66041 21.4282 5.61329C21.4151 5.57383 21.3844 5.53877 21.3997 5.49274C21.4019 5.47082 21.4019 5.45 21.4052 5.42808C21.4205 5.38535 21.4468 5.35247 21.4951 5.34261C21.4994 5.34699 21.5005 5.35247 21.4973 5.35795C21.5159 5.38535 21.4918 5.42041 21.5137 5.44671V5.44891C21.5268 5.49493 21.5192 5.54644 21.5477 5.58918C21.5882 5.76013 21.6299 5.93109 21.6693 6.10204C21.6792 6.14368 21.6836 6.18423 21.7394 6.18642C21.7767 6.18752 21.7767 6.21601 21.7767 6.24341C21.7767 6.28067 21.757 6.29601 21.7219 6.29601C21.6452 6.29601 21.5685 6.2982 21.4929 6.29601C21.4184 6.29272 21.4501 6.23464 21.4447 6.19629C21.46 6.17546 21.4819 6.18533 21.5016 6.18423C21.5203 6.18313 21.5389 6.17985 21.5466 6.16341C21.5751 6.10314 21.5323 6.05163 21.5225 5.99574C21.5148 5.95629 21.4874 5.94533 21.4523 5.94424C21.4403 5.94424 21.4556 5.94424 21.4436 5.94424C21.3427 5.93766 21.2689 6.00013 21.2222 6.13163C21.2123 6.15245 21.1816 6.16889 21.1795 6.15245C21.1718 6.10862 21.1126 6.08341 21.14 6.03081C21.1816 5.79958 21.231 5.56945 21.2879 5.34041C21.3121 5.30206 21.3077 5.25822 21.3175 5.21658L21.3164 5.21768Z" fill="#070707"/>
<path d="M21.3351 6.29776C21.2474 6.29776 21.1597 6.29776 21.0721 6.29776C21.0392 6.29776 21.0227 6.28351 21.0216 6.25173C21.0216 6.21995 21.0162 6.18269 21.0688 6.19036C21.071 6.18927 21.0742 6.18598 21.0764 6.18708C21.1232 6.20534 21.1707 6.19767 21.2189 6.16406C21.2397 6.16406 21.2584 6.17283 21.277 6.17721C21.3668 6.19475 21.3745 6.21118 21.334 6.29776H21.3351Z" fill="#070707"/>
<path d="M21.363 5.45205C21.3236 5.4126 21.3411 5.29863 21.3992 5.2274C21.431 5.24712 21.397 5.32055 21.454 5.3074C21.4847 5.29972 21.4606 5.24931 21.4693 5.21973C21.4869 5.26466 21.5077 5.30959 21.5022 5.36C21.4912 5.39945 21.4397 5.40822 21.431 5.44986C21.4079 5.45972 21.386 5.45862 21.363 5.45205Z" fill="#070707"/>
<path d="M21.213 6.14035C21.2152 6.15131 21.2163 6.16227 21.2185 6.17322C21.1637 6.26856 21.1462 6.27076 21.0684 6.19076C21.1319 6.15459 21.1056 6.07898 21.1407 6.03076C21.1505 6.07679 21.1812 6.10857 21.213 6.14035Z" fill="#070707"/>
<path d="M21.6411 6.52925C21.7167 6.61254 21.6915 6.70568 21.6586 6.79335C21.6104 6.92376 21.5282 7.03554 21.446 7.14732C21.3945 7.21745 21.3583 7.16704 21.3189 7.13307C21.3057 7.1002 21.2718 7.08595 21.251 7.05965C21.2312 7.03664 21.2192 7.01143 21.2236 6.97965C21.2279 6.97198 21.2345 6.96869 21.2444 6.96869C21.297 6.98513 21.3134 7.03883 21.3485 7.0717C21.3715 7.09252 21.3989 7.11883 21.4208 7.08266C21.4975 6.95664 21.6038 6.84596 21.6312 6.69144C21.6411 6.63336 21.6115 6.58295 21.6203 6.52706C21.6279 6.52158 21.6356 6.52158 21.6422 6.52706L21.6411 6.52925Z" fill="#070707"/>
<path d="M21.197 6.95574C21.1521 6.8604 21.0929 6.77164 21.0918 6.65986C21.0918 6.58425 21.1192 6.52836 21.1871 6.49548C21.2507 6.4648 21.3088 6.47904 21.3548 6.53164C21.3877 6.57 21.4118 6.53712 21.4392 6.52726C21.4469 6.53164 21.4523 6.53822 21.4534 6.54808C21.4315 6.6237 21.3811 6.60397 21.3351 6.57767C21.2923 6.55356 21.2562 6.53055 21.2058 6.56562C21.1543 6.60068 21.1444 6.64781 21.1477 6.7037C21.151 6.76835 21.1849 6.82095 21.2112 6.87684C21.2255 6.90753 21.2551 6.93602 21.2332 6.97437C21.231 6.97657 21.2277 6.97766 21.2255 6.97876C21.2102 6.97876 21.2025 6.9678 21.197 6.95574Z" fill="#070707"/>
<path d="M21.643 6.52974C21.6365 6.52974 21.6288 6.53083 21.6222 6.53193C21.6156 6.53741 21.6091 6.5396 21.6003 6.5396C21.5576 6.53302 21.5148 6.53193 21.4732 6.5396C21.4655 6.5396 21.4578 6.5396 21.4502 6.53522C21.4469 6.53193 21.4436 6.52974 21.4414 6.52645C21.5159 6.4607 21.5685 6.4607 21.6441 6.52974H21.643Z" fill="#070707"/>
<path d="M21.6025 6.53035C21.608 6.53035 21.6135 6.53035 21.619 6.53145C21.6847 6.63117 21.6562 6.73199 21.6113 6.82514C21.5653 6.91938 21.5006 7.00486 21.4447 7.09472C21.413 7.14623 21.3812 7.14842 21.3428 7.0991C21.3089 7.05527 21.2694 7.01582 21.2332 6.97308C21.2058 6.91829 21.1774 6.86459 21.1511 6.8098C21.0985 6.7035 21.1226 6.60377 21.2015 6.54021C21.253 6.49857 21.288 6.51391 21.3319 6.54898C21.3713 6.58186 21.4184 6.61254 21.448 6.53473C21.4524 6.53364 21.4568 6.53254 21.4612 6.53145C21.5083 6.5161 21.5554 6.5183 21.6036 6.53035H21.6025Z" fill="#070707"/>
<path d="M10.4727 26.9919C10.4705 27.0204 10.4639 27.0511 10.5099 27.0467C10.5384 27.0555 10.5669 27.0577 10.5954 27.0445C10.6031 27.0325 10.6119 27.0193 10.6195 27.0072C10.6272 26.9974 10.6283 26.9853 10.6261 26.9744C10.6217 26.9503 10.6447 26.9174 10.6119 26.9031C10.5779 26.8889 10.5625 26.9229 10.5362 26.9459C10.5275 26.8845 10.4771 26.8308 10.5308 26.7716C10.5341 26.7453 10.5341 26.719 10.5319 26.6927C10.5275 26.6577 10.5154 26.6237 10.5089 26.5897C10.5001 26.5623 10.488 26.5349 10.4825 26.5064C10.4584 26.3881 10.4793 26.3705 10.6031 26.4078C10.6108 26.421 10.6119 26.4363 10.6119 26.4516C10.6141 26.5021 10.5976 26.5492 10.5845 26.5963C10.5713 26.6357 10.5406 26.6708 10.556 26.7168C10.5582 26.7388 10.5582 26.7596 10.5615 26.7815C10.5768 26.8242 10.6031 26.8571 10.6513 26.867C10.6557 26.8626 10.6568 26.8571 10.6535 26.8516C10.6721 26.8242 10.648 26.7892 10.6699 26.7629V26.7607C10.6831 26.7146 10.6754 26.6631 10.7039 26.6204C10.7445 26.4495 10.7861 26.2785 10.8256 26.1075C10.8354 26.0659 10.8398 26.0253 10.8957 26.0232C10.933 26.0221 10.933 25.9936 10.933 25.9662C10.933 25.9289 10.9132 25.9136 10.8782 25.9136C10.8014 25.9136 10.7247 25.9114 10.6491 25.9136C10.5746 25.9169 10.6064 25.9749 10.6009 26.0133C10.6162 26.0341 10.6382 26.0243 10.6579 26.0254C10.6765 26.0264 10.6951 26.0297 10.7028 26.0462C10.7313 26.1064 10.6886 26.158 10.6787 26.2138C10.671 26.2533 10.6436 26.2642 10.6086 26.2653C10.5965 26.2653 10.6119 26.2653 10.5998 26.2653C10.499 26.2719 10.4252 26.2095 10.3784 26.078C10.3686 26.0571 10.3379 26.0407 10.3357 26.0571C10.328 26.101 10.2689 26.1262 10.2963 26.1788C10.3379 26.41 10.3872 26.6401 10.4442 26.8692C10.4683 26.9075 10.4639 26.9514 10.4738 26.993L10.4727 26.9919Z" fill="#070707"/>
<path d="M10.4913 25.9111C10.4036 25.9111 10.316 25.9111 10.2283 25.9111C10.1954 25.9111 10.179 25.9254 10.1779 25.9572C10.1779 25.9889 10.1724 26.0262 10.225 26.0185C10.2272 26.0196 10.2305 26.0229 10.2327 26.0218C10.2794 26.0036 10.3269 26.0112 10.3752 26.0448C10.396 26.0448 10.4146 26.0361 10.4332 26.0317C10.5231 26.0141 10.5308 25.9977 10.4902 25.9111H10.4913Z" fill="#070707"/>
<path d="M10.5232 26.758C10.4837 26.7975 10.5013 26.9114 10.5593 26.9827C10.5911 26.9629 10.5571 26.8895 10.6141 26.9027C10.6448 26.9103 10.6207 26.9607 10.6295 26.9903C10.647 26.9454 10.6678 26.9005 10.6624 26.8501C10.6514 26.8106 10.5999 26.8018 10.5911 26.7602C10.5681 26.7503 10.5462 26.7514 10.5232 26.758Z" fill="#070707"/>
<path d="M10.3673 26.0685C10.3695 26.0576 10.3706 26.0466 10.3728 26.0357C10.318 25.9403 10.3005 25.9381 10.2227 26.0181C10.2862 26.0543 10.2599 26.1299 10.295 26.1781C10.3048 26.1321 10.3355 26.1003 10.3673 26.0685Z" fill="#070707"/>
<path d="M10.7954 25.6797C10.871 25.5964 10.8458 25.5033 10.8129 25.4156C10.7647 25.2852 10.6825 25.1734 10.6003 25.0616C10.5488 24.9915 10.5126 25.0419 10.4732 25.0759C10.46 25.1088 10.4261 25.123 10.4052 25.1493C10.3855 25.1723 10.3735 25.1975 10.3779 25.2293C10.3822 25.237 10.3888 25.2403 10.3987 25.2403C10.4513 25.2238 10.4677 25.1701 10.5028 25.1373C10.5258 25.1164 10.5532 25.0901 10.5751 25.1263C10.6518 25.2523 10.7581 25.363 10.7855 25.5175C10.7954 25.5756 10.7658 25.626 10.7746 25.6819C10.7822 25.6874 10.7899 25.6874 10.7965 25.6819L10.7954 25.6797Z" fill="#070707"/>
<path d="M10.3533 25.2545C10.3083 25.3498 10.2491 25.4386 10.248 25.5503C10.248 25.626 10.2754 25.6818 10.3434 25.7147C10.4069 25.7454 10.465 25.7312 10.5111 25.6786C10.5439 25.6402 10.568 25.6731 10.5954 25.6829C10.6031 25.6786 10.6086 25.672 10.6097 25.6621C10.5878 25.5865 10.5374 25.6062 10.4913 25.6325C10.4486 25.6566 10.4124 25.6797 10.362 25.6446C10.3105 25.6095 10.3006 25.5624 10.3039 25.5065C10.3072 25.4419 10.3412 25.3893 10.3675 25.3334C10.3817 25.3027 10.4113 25.2742 10.3894 25.2358C10.3872 25.2336 10.3839 25.2325 10.3817 25.2314C10.3664 25.2314 10.3587 25.2424 10.3533 25.2545Z" fill="#070707"/>
<path d="M10.7993 25.6793C10.7927 25.6793 10.7851 25.6782 10.7785 25.6771C10.7719 25.6716 10.7653 25.6694 10.7566 25.6694C10.7138 25.676 10.6711 25.6771 10.6294 25.6694C10.6218 25.6694 10.6141 25.6694 10.6064 25.6738C10.6031 25.6771 10.5998 25.6793 10.5977 25.6826C10.6722 25.7483 10.7248 25.7483 10.8004 25.6793H10.7993Z" fill="#070707"/>
<path d="M10.7588 25.6796C10.7643 25.6796 10.7698 25.6796 10.7752 25.6785C10.841 25.5788 10.8125 25.478 10.7676 25.3848C10.7215 25.2906 10.6569 25.2051 10.601 25.1152C10.5692 25.0637 10.5374 25.0615 10.4991 25.1109C10.4651 25.1547 10.4257 25.1941 10.3895 25.2369C10.3621 25.2917 10.3336 25.3454 10.3073 25.4002C10.2547 25.5065 10.2788 25.6062 10.3577 25.6697C10.4092 25.7114 10.4443 25.696 10.4881 25.661C10.5276 25.6281 10.5747 25.5974 10.6043 25.6752C10.6087 25.6763 10.6131 25.6774 10.6174 25.6785C10.6646 25.6939 10.7117 25.6917 10.7599 25.6796H10.7588Z" fill="#070707"/>
</svg>
