<svg width="32" height="32" viewBox="0 0 32 32" fill="none" xmlns="http://www.w3.org/2000/svg">
<rect width="32" height="32" rx="5" fill="black"/>
<path d="M10.125 10.2992C10.1339 9.93198 10.2232 7.6801 12.1002 6.06068C13.6393 4.73199 15.3926 4.67971 15.8631 4.67971C16.3464 4.67843 18.0589 4.73199 19.5776 6.01222C21.5005 7.63292 21.5936 9.93581 21.6025 10.2992" stroke="white" stroke-width="0.0346973" stroke-miterlimit="10"/>
<path d="M10.3555 10.2989C10.3631 9.94695 10.4498 7.78815 12.2503 6.23377C13.7256 4.95991 15.4075 4.9089 15.8589 4.91018C16.3218 4.9089 17.9642 4.95991 19.4217 6.18786C21.2655 7.74225 21.3548 9.9495 21.3624 10.2989" stroke="white" stroke-width="0.0346973" stroke-miterlimit="10"/>
<path d="M15.8878 27.5658C15.4045 27.5671 13.692 27.5135 12.1733 26.2333C10.2504 24.6126 10.1574 22.3097 10.1484 21.9463" stroke="white" stroke-width="0.0346973" stroke-miterlimit="10"/>
<path d="M15.8882 27.335C15.4254 27.3363 13.783 27.2853 12.3255 26.0573C10.4817 24.5029 10.3924 22.2957 10.3848 21.9463" stroke="white" stroke-width="0.0346973" stroke-miterlimit="10"/>
<path d="M15.8738 4.00499V3.04736H8.76367V10.3654H9.51217C9.51217 6.85109 12.3608 4.00371 15.8738 4.00371V4.00499Z" fill="white"/>
<path d="M15.8906 4.00499V3.04736H23.0008V10.3654H22.2523C22.2523 6.85109 19.4036 4.00371 15.8906 4.00371V4.00499Z" fill="white"/>
<path d="M16.4473 15.8341V14.9517H16.6232C20.1439 14.9517 22.9989 17.8067 22.9989 21.3273V21.6958H22.3091C22.3091 18.4583 19.6848 15.8341 16.4473 15.8341Z" fill="white"/>
<path d="M15.8906 28.21V29.1676H23.0008V21.8496H22.2523C22.2523 25.3639 19.4036 28.2113 15.8906 28.2113V28.21Z" fill="white"/>
<path d="M15.8738 28.21V29.1676H8.76367V21.8496H9.51217C9.51217 25.3639 12.3608 28.2113 15.8738 28.2113V28.21Z" fill="white"/>
<path d="M15.3153 16.4013V17.2837H15.1393C11.6187 17.2837 8.76367 14.4287 8.76367 10.9081V10.5396H9.45352C9.45352 13.7771 12.0777 16.4013 15.3153 16.4013Z" fill="white"/>
<path d="M22.2059 3.4363C22.2033 3.40315 22.1956 3.36745 22.2492 3.37255C22.2824 3.36235 22.3155 3.35979 22.3487 3.3751C22.3576 3.38912 22.3678 3.40442 22.3767 3.41845C22.3856 3.42993 22.3869 3.44395 22.3844 3.4567C22.3793 3.48476 22.406 3.52301 22.3678 3.53959C22.3283 3.55617 22.3104 3.51664 22.2798 3.48986C22.2696 3.56127 22.211 3.62375 22.2734 3.6926C22.2773 3.72321 22.2773 3.75381 22.2747 3.78441C22.2696 3.82522 22.2556 3.86475 22.2479 3.90428C22.2377 3.93615 22.2237 3.96803 22.2173 4.00119C22.1893 4.1389 22.2135 4.1593 22.3576 4.11595C22.3665 4.10065 22.3678 4.0828 22.3678 4.06494C22.3703 4.00629 22.3512 3.95146 22.3359 3.89663C22.3206 3.85072 22.2849 3.80992 22.3028 3.75636C22.3053 3.73086 22.3053 3.70663 22.3091 3.68113C22.327 3.6314 22.3576 3.59314 22.4137 3.58167C22.4188 3.58677 22.4201 3.59314 22.4162 3.59952C22.4379 3.6314 22.4099 3.6722 22.4354 3.70281V3.70536C22.4507 3.75891 22.4417 3.81884 22.4749 3.86857C22.5221 4.06749 22.5705 4.26641 22.6164 4.46534C22.6279 4.51379 22.633 4.56097 22.6981 4.56352C22.7414 4.5648 22.7414 4.59795 22.7414 4.62983C22.7414 4.67318 22.7185 4.69103 22.6776 4.69103C22.5884 4.69103 22.4991 4.69358 22.4111 4.69103C22.3244 4.68721 22.3614 4.61963 22.355 4.575C22.3729 4.55077 22.3984 4.56225 22.4213 4.56097C22.443 4.5597 22.4647 4.55587 22.4736 4.53674C22.5068 4.46661 22.4571 4.40668 22.4456 4.34165C22.4366 4.29574 22.4048 4.28299 22.364 4.28172C22.3499 4.28172 22.3678 4.28172 22.3538 4.28172C22.2365 4.27407 22.1506 4.34675 22.0962 4.49976C22.0847 4.52399 22.049 4.54312 22.0465 4.52399C22.0375 4.47299 21.9687 4.44366 22.0006 4.38245C22.049 4.1134 22.1064 3.84562 22.1727 3.57912C22.2007 3.53449 22.1956 3.48348 22.2071 3.43503L22.2059 3.4363Z" fill="black"/>
<path d="M22.2282 4.69316C22.1261 4.69316 22.0241 4.69316 21.9221 4.69316C21.8839 4.69316 21.8647 4.67659 21.8635 4.63961C21.8635 4.60263 21.8571 4.55928 21.9183 4.5682C21.9209 4.56693 21.9247 4.5631 21.9272 4.56438C21.9816 4.58563 22.0369 4.5767 22.093 4.5376C22.1172 4.5376 22.1389 4.5478 22.1606 4.5529C22.2651 4.5733 22.2741 4.59243 22.2269 4.69316H22.2282Z" fill="black"/>
<path d="M22.2591 3.7088C22.2132 3.6629 22.2336 3.53029 22.3011 3.4474C22.3381 3.47035 22.2986 3.55579 22.3649 3.54049C22.4006 3.53156 22.3726 3.47291 22.3828 3.43848C22.4032 3.49076 22.4274 3.54304 22.421 3.60169C22.4083 3.6476 22.3483 3.6578 22.3381 3.70625C22.3113 3.71773 22.2858 3.71646 22.2591 3.7088Z" fill="black"/>
<path d="M22.0843 4.50984C22.0869 4.52259 22.0882 4.53534 22.0907 4.54809C22.027 4.65903 22.0066 4.66158 21.916 4.56849C21.99 4.52641 21.9594 4.43843 22.0002 4.38232C22.0117 4.43588 22.0474 4.47286 22.0843 4.50984Z" fill="black"/>
<path d="M22.5826 4.96241C22.6706 5.05932 22.6412 5.16771 22.603 5.26972C22.5469 5.42146 22.4512 5.55152 22.3556 5.68158C22.2957 5.76319 22.2536 5.70454 22.2077 5.66501C22.1924 5.62675 22.1529 5.61018 22.1286 5.57957C22.1057 5.5528 22.0916 5.52347 22.0967 5.48649C22.1018 5.47756 22.1095 5.47374 22.121 5.47374C22.1822 5.49287 22.2013 5.55535 22.2421 5.5936C22.2689 5.61783 22.3008 5.64843 22.3263 5.60635C22.4155 5.45971 22.5392 5.33092 22.5711 5.15113C22.5826 5.08355 22.5481 5.02489 22.5583 4.95986C22.5673 4.95348 22.5762 4.95348 22.5838 4.95986L22.5826 4.96241Z" fill="black"/>
<path d="M22.0658 5.45846C22.0135 5.34752 21.9446 5.24423 21.9434 5.11417C21.9434 5.02619 21.9752 4.96115 22.0543 4.9229C22.1283 4.8872 22.1958 4.90377 22.2494 4.96498C22.2876 5.00961 22.3157 4.97136 22.3476 4.95988C22.3565 4.96498 22.3629 4.97263 22.3642 4.98411C22.3387 5.07209 22.28 5.04914 22.2264 5.01854C22.1767 4.99048 22.1346 4.96371 22.076 5.00451C22.016 5.04531 22.0046 5.10014 22.0084 5.16518C22.0122 5.24041 22.0517 5.30162 22.0824 5.36665C22.0989 5.40235 22.1334 5.4355 22.1079 5.48013C22.1053 5.48268 22.1015 5.48396 22.0989 5.48523C22.0811 5.48523 22.0721 5.47248 22.0658 5.45846Z" fill="black"/>
<path d="M22.5862 4.96308C22.5785 4.96308 22.5696 4.96436 22.562 4.96563C22.5543 4.97201 22.5467 4.97456 22.5365 4.97456C22.4867 4.96691 22.437 4.96563 22.3885 4.97456C22.3796 4.97456 22.3707 4.97456 22.3618 4.96946C22.3579 4.96563 22.3541 4.96308 22.3516 4.95926C22.4383 4.88275 22.4995 4.88275 22.5875 4.96308H22.5862Z" fill="black"/>
<path d="M22.5384 4.9635C22.5448 4.9635 22.5512 4.9635 22.5575 4.96478C22.634 5.08082 22.6009 5.19813 22.5486 5.30651C22.4951 5.41618 22.4198 5.51564 22.3548 5.6202C22.3178 5.68013 22.2808 5.68268 22.2362 5.6253C22.1967 5.57429 22.1508 5.52839 22.1087 5.47866C22.0768 5.4149 22.0437 5.35242 22.0131 5.28866C21.9519 5.16497 21.9799 5.04894 22.0717 4.97498C22.1316 4.92652 22.1725 4.94438 22.2235 4.98518C22.2694 5.02343 22.3242 5.05914 22.3586 4.9686C22.3637 4.96733 22.3688 4.96605 22.3739 4.96478C22.4288 4.94693 22.4836 4.94948 22.5397 4.9635H22.5384Z" fill="black"/>
<path d="M9.58866 28.7725C9.58611 28.8056 9.57846 28.8413 9.63202 28.8362C9.66517 28.8464 9.69832 28.849 9.73148 28.8337C9.7404 28.8196 9.7506 28.8043 9.75953 28.7903C9.76846 28.7788 9.76973 28.7648 9.76718 28.7521C9.76208 28.724 9.78886 28.6858 9.75061 28.6692C9.71108 28.6526 9.69322 28.6921 9.66262 28.7189C9.65242 28.6475 9.59376 28.585 9.65625 28.5162C9.66007 28.4856 9.66007 28.455 9.65752 28.4244C9.65242 28.3836 9.63839 28.344 9.63074 28.3045C9.62054 28.2726 9.60651 28.2407 9.60014 28.2076C9.57209 28.0699 9.59631 28.0495 9.7404 28.0928C9.74933 28.1081 9.75061 28.126 9.75061 28.1438C9.75316 28.2025 9.73403 28.2573 9.71873 28.3121C9.70343 28.358 9.66772 28.3989 9.68557 28.4524C9.68812 28.4779 9.68812 28.5021 9.69195 28.5276C9.7098 28.5774 9.7404 28.6156 9.79651 28.6271C9.80161 28.622 9.80289 28.6156 9.79906 28.6092C9.82074 28.5774 9.79269 28.5366 9.81819 28.506V28.5034C9.83349 28.4499 9.82456 28.3899 9.85772 28.3402C9.9049 28.1413 9.95335 27.9424 9.99926 27.7434C10.0107 27.695 10.0158 27.6478 10.0809 27.6452C10.1242 27.644 10.1242 27.6108 10.1242 27.5789C10.1242 27.5356 10.1013 27.5177 10.0605 27.5177C9.9712 27.5177 9.88194 27.5152 9.79396 27.5177C9.70725 27.5216 9.74423 27.5891 9.73785 27.6338C9.75571 27.658 9.78121 27.6465 9.80416 27.6478C9.82584 27.6491 9.84752 27.6529 9.85644 27.672C9.8896 27.7422 9.83987 27.8021 9.82839 27.8671C9.81946 27.913 9.78758 27.9258 9.74678 27.9271C9.73275 27.9271 9.75061 27.9271 9.73658 27.9271C9.61927 27.9347 9.53341 27.862 9.479 27.709C9.46753 27.6848 9.43182 27.6657 9.42927 27.6848C9.42035 27.7358 9.35149 27.7651 9.38337 27.8263C9.43182 28.0954 9.4892 28.3631 9.55551 28.6297C9.58356 28.6743 9.57846 28.7253 9.58994 28.7737L9.58866 28.7725Z" fill="black"/>
<path d="M9.60902 27.5146C9.50701 27.5146 9.405 27.5146 9.30299 27.5146C9.26473 27.5146 9.24561 27.5312 9.24433 27.5682C9.24433 27.6052 9.23795 27.6485 9.29916 27.6396C9.30171 27.6409 9.30554 27.6447 9.30809 27.6434C9.36249 27.6222 9.41775 27.6311 9.47385 27.6702C9.49808 27.6702 9.51976 27.66 9.54144 27.6549C9.646 27.6345 9.65492 27.6154 9.60774 27.5146H9.60902Z" fill="black"/>
<path d="M9.64579 28.5C9.59988 28.546 9.62029 28.6786 9.68787 28.7614C9.72485 28.7385 9.68532 28.6531 9.75162 28.6684C9.78733 28.6773 9.75928 28.7359 9.76948 28.7704C9.78988 28.7181 9.81411 28.6658 9.80773 28.6072C9.79498 28.5613 9.73505 28.5511 9.72485 28.5026C9.69807 28.4911 9.67257 28.4924 9.64579 28.5Z" fill="black"/>
<path d="M9.46519 27.698C9.46774 27.6852 9.46902 27.6725 9.47157 27.6597C9.40781 27.5488 9.38741 27.5462 9.29688 27.6393C9.37083 27.6814 9.34023 27.7694 9.38103 27.8255C9.39251 27.7719 9.42821 27.7349 9.46519 27.698Z" fill="black"/>
<path d="M9.96344 27.2456C10.0514 27.1487 10.0221 27.0403 9.98384 26.9383C9.92773 26.7865 9.8321 26.6565 9.73646 26.5264C9.67653 26.4448 9.63445 26.5035 9.58855 26.543C9.57324 26.5812 9.53371 26.5978 9.50949 26.6284C9.48653 26.6552 9.47251 26.6845 9.47761 26.7215C9.48271 26.7304 9.49036 26.7343 9.50184 26.7343C9.56304 26.7151 9.58217 26.6526 9.62297 26.6144C9.64975 26.5902 9.68163 26.5596 9.70713 26.6016C9.79639 26.7483 9.92008 26.8771 9.95196 27.0569C9.96343 27.1244 9.92901 27.1831 9.93921 27.2481C9.94813 27.2545 9.95706 27.2545 9.96471 27.2481L9.96344 27.2456Z" fill="black"/>
<path d="M9.44859 26.7509C9.39631 26.8618 9.32745 26.9651 9.32617 27.0952C9.32617 27.1832 9.35805 27.2482 9.43711 27.2865C9.51107 27.3222 9.57865 27.3056 9.63221 27.2444C9.67046 27.1997 9.69851 27.238 9.73039 27.2495C9.73931 27.2444 9.74569 27.2367 9.74697 27.2252C9.72146 27.1373 9.66281 27.1602 9.60925 27.1908C9.55952 27.2189 9.51744 27.2457 9.45879 27.2048C9.39886 27.164 9.38738 27.1092 9.3912 27.0442C9.39503 26.9689 9.43456 26.9077 9.46516 26.8427C9.48174 26.807 9.51617 26.7739 9.49067 26.7292C9.48811 26.7267 9.48429 26.7254 9.48174 26.7241C9.46389 26.7241 9.45496 26.7369 9.44859 26.7509Z" fill="black"/>
<path d="M9.96705 27.2454C9.9594 27.2454 9.95047 27.2441 9.94282 27.2428C9.93517 27.2364 9.92752 27.2339 9.91732 27.2339C9.86759 27.2415 9.81786 27.2428 9.7694 27.2339C9.76048 27.2339 9.75155 27.2339 9.74262 27.239C9.7388 27.2428 9.73497 27.2454 9.73242 27.2492C9.81913 27.3257 9.88034 27.3257 9.96832 27.2454H9.96705Z" fill="black"/>
<path d="M9.92122 27.2453C9.9276 27.2453 9.93398 27.2453 9.94035 27.244C10.0169 27.128 9.98371 27.0107 9.93143 26.9023C9.87787 26.7926 9.80264 26.6931 9.73761 26.5886C9.70063 26.5286 9.66365 26.5261 9.61902 26.5835C9.57949 26.6345 9.53358 26.6804 9.49151 26.7301C9.45963 26.7939 9.42647 26.8564 9.39587 26.9201C9.33466 27.0438 9.36272 27.1598 9.45453 27.2338C9.51446 27.2823 9.55526 27.2644 9.60627 27.2236C9.65217 27.1853 9.707 27.1496 9.74143 27.2402C9.74653 27.2414 9.75163 27.2427 9.75673 27.244C9.81156 27.2619 9.8664 27.2593 9.9225 27.2453H9.92122Z" fill="black"/>
</svg>
