<svg width="184" height="35" viewBox="0 0 184 35" fill="none" xmlns="http://www.w3.org/2000/svg">
<path d="M2.208 23.1956H1.44V11.8356H2.208L6.56 22.2676L10.896 11.8356H11.68V23.1956H10.912V16.9716C10.912 16.5022 10.912 16.0916 10.912 15.7396C10.9227 15.3769 10.928 15.0569 10.928 14.7796C10.9387 14.4916 10.9493 14.2409 10.96 14.0276C10.9707 13.8036 10.9813 13.5956 10.992 13.4036L6.944 23.1956H6.176L2.128 13.4516C2.14933 13.6116 2.16533 14.0062 2.176 14.6356C2.19733 15.2542 2.208 16.0329 2.208 16.9716V23.1956ZM16.197 23.3876C15.3757 23.3876 14.7357 23.1796 14.277 22.7636C13.829 22.3476 13.605 21.8142 13.605 21.1636C13.605 20.4596 13.861 19.8942 14.373 19.4676C14.885 19.0409 15.589 18.7902 16.485 18.7156L19.125 18.5076V18.2196C19.125 17.6436 19.0237 17.1956 18.821 16.8756C18.6183 16.5449 18.3463 16.3156 18.005 16.1876C17.6637 16.0596 17.2903 15.9956 16.885 15.9956C16.1703 15.9956 15.6103 16.1556 15.205 16.4756C14.8103 16.7849 14.613 17.2222 14.613 17.7876H13.877C13.877 17.2862 13.9997 16.8542 14.245 16.4916C14.501 16.1182 14.8583 15.8302 15.317 15.6276C15.7757 15.4249 16.3037 15.3236 16.901 15.3236C17.4557 15.3236 17.9517 15.4196 18.389 15.6116C18.837 15.7929 19.1943 16.0916 19.461 16.5076C19.7277 16.9129 19.861 17.4462 19.861 18.1076V23.1956H19.269L19.125 21.7556C18.8583 22.2782 18.469 22.6836 17.957 22.9716C17.445 23.2489 16.8583 23.3876 16.197 23.3876ZM16.293 22.7316C17.1997 22.7316 17.8983 22.4329 18.389 21.8356C18.8797 21.2382 19.125 20.4702 19.125 19.5316V19.1156L16.549 19.3236C15.7703 19.3876 15.205 19.5902 14.853 19.9316C14.5117 20.2729 14.341 20.6782 14.341 21.1476C14.341 21.6702 14.5223 22.0649 14.885 22.3316C15.2477 22.5982 15.717 22.7316 16.293 22.7316ZM24.8329 23.3876C24.0862 23.3876 23.4462 23.2116 22.9129 22.8596C22.3902 22.4969 21.9902 22.0116 21.7129 21.4036C21.4355 20.7956 21.2969 20.1129 21.2969 19.3556C21.2969 18.5982 21.4355 17.9156 21.7129 17.3076C21.9902 16.6996 22.3902 16.2196 22.9129 15.8676C23.4462 15.5049 24.0862 15.3236 24.8329 15.3236C25.5155 15.3236 26.1129 15.4782 26.6249 15.7876C27.1369 16.0862 27.5315 16.5502 27.8089 17.1796V11.6436H28.5449V23.1956H27.9529L27.8409 21.4676C27.5529 22.1182 27.1422 22.6036 26.6089 22.9236C26.0862 23.2329 25.4942 23.3876 24.8329 23.3876ZM24.9129 22.7156C25.5315 22.7156 26.0542 22.5716 26.4809 22.2836C26.9075 21.9956 27.2329 21.6009 27.4569 21.0996C27.6809 20.5876 27.7929 20.0062 27.7929 19.3556C27.7929 18.7049 27.6809 18.1289 27.4569 17.6276C27.2329 17.1262 26.9075 16.7316 26.4809 16.4436C26.0542 16.1449 25.5315 15.9956 24.9129 15.9956C24.3049 15.9956 23.7875 16.1449 23.3609 16.4436C22.9342 16.7316 22.6089 17.1262 22.3849 17.6276C22.1609 18.1289 22.0489 18.7049 22.0489 19.3556C22.0489 20.0062 22.1609 20.5876 22.3849 21.0996C22.6089 21.6009 22.9342 21.9956 23.3609 22.2836C23.7875 22.5716 24.3049 22.7156 24.9129 22.7156ZM33.7823 23.3876C33.0463 23.3876 32.4009 23.2222 31.8463 22.8916C31.2916 22.5502 30.8596 22.0809 30.5503 21.4836C30.2409 20.8756 30.0863 20.1716 30.0863 19.3716C30.0863 18.5716 30.2356 17.8676 30.5343 17.2596C30.8436 16.6516 31.2649 16.1769 31.7983 15.8356C32.3423 15.4942 32.9716 15.3236 33.6863 15.3236C34.3583 15.3236 34.9449 15.4729 35.4463 15.7716C35.9583 16.0702 36.3529 16.4862 36.6303 17.0196C36.9183 17.5422 37.0623 18.1556 37.0623 18.8596V19.3716H30.5023L30.5343 18.7636H36.3103C36.3103 17.9316 36.0703 17.2649 35.5903 16.7636C35.1103 16.2516 34.4756 15.9956 33.6863 15.9956C33.1209 15.9956 32.6196 16.1289 32.1823 16.3956C31.7556 16.6622 31.4196 17.0409 31.1743 17.5316C30.9396 18.0116 30.8223 18.5716 30.8223 19.2116C30.8223 20.3102 31.0836 21.1689 31.6063 21.7876C32.1289 22.4062 32.8543 22.7156 33.7823 22.7156C34.4649 22.7156 35.0196 22.5716 35.4463 22.2836C35.8729 21.9849 36.1609 21.5529 36.3103 20.9876H37.0623C36.8383 21.7769 36.4489 22.3742 35.8943 22.7796C35.3503 23.1849 34.6463 23.3876 33.7823 23.3876ZM42.7566 23.1956V15.5156H43.4926V23.1956H42.7566ZM43.1246 13.1636C42.9433 13.1636 42.7833 13.0996 42.6446 12.9716C42.5166 12.8329 42.4526 12.6782 42.4526 12.5076C42.4526 12.3262 42.5166 12.1662 42.6446 12.0276C42.7833 11.8889 42.9433 11.8196 43.1246 11.8196C43.306 11.8196 43.4606 11.8889 43.5886 12.0276C43.7273 12.1662 43.7966 12.3262 43.7966 12.5076C43.7966 12.6782 43.7273 12.8329 43.5886 12.9716C43.4606 13.0996 43.306 13.1636 43.1246 13.1636ZM46.3445 23.1956H45.6085V15.5156H46.2005L46.3605 17.0036C46.6165 16.4702 46.9898 16.0596 47.4805 15.7716C47.9712 15.4729 48.5045 15.3236 49.0805 15.3236C50.1685 15.3236 50.9365 15.6169 51.3845 16.2036C51.8432 16.7902 52.0725 17.5636 52.0725 18.5236V23.1956H51.3365V18.6676C51.3365 17.6542 51.1285 16.9556 50.7125 16.5716C50.3072 16.1876 49.7578 15.9956 49.0645 15.9956C48.1898 15.9956 47.5178 16.2942 47.0485 16.8916C46.5792 17.4782 46.3445 18.2569 46.3445 19.2276V23.1956Z" fill="#EEEEEE"/>
<path d="M84.2119 6.16504C84.5909 6.16504 84.9344 6.27695 85.1826 6.4707L85.1875 6.47363L85.1934 6.47852L85.2021 6.48535L93.5322 13.0078L93.6621 13.1123C94.4538 13.7529 95.1167 14.5064 95.6328 15.3525C96.1504 16.2006 96.5049 17.115 96.6895 18.0762L96.7578 18.4912C96.8175 18.9231 96.8424 19.3584 96.833 19.79L96.8125 20.2197C96.7656 20.8112 96.6544 21.3957 96.4805 21.9619C96.1287 23.1059 95.5354 24.1557 94.7168 25.082C93.8673 26.0405 92.8289 26.8044 91.6299 27.3516C90.3604 27.9284 88.9957 28.2231 87.5723 28.2266H87.5596C86.1407 28.2266 84.7799 27.9365 83.5146 27.3662C82.3178 26.8255 81.2786 26.0643 80.4258 25.1055C79.6064 24.1841 79.0125 23.1361 78.6602 21.9912C78.5324 21.5738 78.4406 21.0845 78.4004 20.7266L78.3779 20.4199C78.3751 20.2103 78.4002 19.9155 78.4219 19.709L78.4648 19.3057L78.1533 19.5654L73.0723 23.8027C72.638 24.1603 72.1239 24.3525 71.627 24.3525C71.1228 24.3524 70.7073 24.1564 70.4434 23.8115C70.2214 23.5215 70.1272 23.1551 70.1787 22.7441C70.2469 22.1996 70.564 21.6606 71.0596 21.2734L71.0947 21.249L71.0957 21.248L80.5049 14.1533L80.8984 13.8555L80.4053 13.8564L79.3604 13.8594C78.2653 13.8621 77.1686 13.8643 76.0771 13.8643H75.2871C74.8346 13.8642 74.4388 13.6795 74.166 13.3477C73.9061 13.0312 73.7935 12.6217 73.8574 12.2568C73.9331 11.8239 74.153 11.483 74.4873 11.248C74.824 11.0115 75.2863 10.8751 75.8535 10.875L86.2217 10.8828H86.6885L86.3242 10.5898L84.7119 9.27148C84.1686 8.8241 83.6249 8.37665 83.0801 7.93848H83.0811C82.8358 7.73234 82.7187 7.47953 82.7285 7.22852C82.738 6.99175 82.8576 6.75573 83.0879 6.55762L83.1934 6.47559C83.4707 6.27717 83.8326 6.16505 84.2119 6.16504ZM87.665 13.4072C84.4111 13.4072 81.7451 15.8163 81.7451 18.8193C81.7451 21.8227 84.411 24.2324 87.665 24.2324C90.9189 24.2322 93.5841 21.8226 93.584 18.8193C93.584 15.8164 90.9189 13.4074 87.665 13.4072ZM87.6602 15.585C88.494 15.5851 89.2555 15.8856 89.8213 16.376C90.3607 16.8435 90.7271 17.4888 90.8066 18.2197L90.8184 18.3672C90.8625 19.1821 90.5442 19.9408 89.9795 20.5049C89.4049 21.0797 88.5826 21.4423 87.6602 21.4424C86.7379 21.4424 85.9147 21.0798 85.3398 20.5049C84.7756 19.941 84.4582 19.1824 84.502 18.3682C84.545 17.5765 84.923 16.8746 85.498 16.376C86.0638 15.8855 86.8262 15.585 87.6602 15.585Z" stroke="white" stroke-width="0.329278"/>
<path d="M114.008 23.1956H113.24L117.448 11.8356H118.584L122.84 23.1956H122.056L120.856 20.0116H115.192L114.008 23.1956ZM117.912 12.6516L115.448 19.3076H120.6L118.104 12.6516C118.093 12.5982 118.077 12.5502 118.056 12.5076C118.035 12.4542 118.019 12.4062 118.008 12.3636C117.997 12.3956 117.981 12.4436 117.96 12.5076C117.949 12.5609 117.933 12.6089 117.912 12.6516ZM124.71 23.1956H123.974V15.5156H124.566L124.726 17.0036C124.982 16.4702 125.355 16.0596 125.846 15.7716C126.337 15.4729 126.87 15.3236 127.446 15.3236C128.534 15.3236 129.302 15.6169 129.75 16.2036C130.209 16.7902 130.438 17.5636 130.438 18.5236V23.1956H129.702V18.6676C129.702 17.6542 129.494 16.9556 129.078 16.5716C128.673 16.1876 128.123 15.9956 127.43 15.9956C126.555 15.9956 125.883 16.2942 125.414 16.8916C124.945 17.4782 124.71 18.2569 124.71 19.2276V23.1956ZM135.411 23.3876C134.664 23.3876 134.024 23.2116 133.491 22.8596C132.968 22.4969 132.568 22.0116 132.291 21.4036C132.014 20.7956 131.875 20.1129 131.875 19.3556C131.875 18.5982 132.014 17.9156 132.291 17.3076C132.568 16.6996 132.968 16.2196 133.491 15.8676C134.024 15.5049 134.664 15.3236 135.411 15.3236C136.094 15.3236 136.691 15.4782 137.203 15.7876C137.715 16.0862 138.11 16.5502 138.387 17.1796V11.6436H139.123V23.1956H138.531L138.419 21.4676C138.131 22.1182 137.72 22.6036 137.187 22.9236C136.664 23.2329 136.072 23.3876 135.411 23.3876ZM135.491 22.7156C136.11 22.7156 136.632 22.5716 137.059 22.2836C137.486 21.9956 137.811 21.6009 138.035 21.0996C138.259 20.5876 138.371 20.0062 138.371 19.3556C138.371 18.7049 138.259 18.1289 138.035 17.6276C137.811 17.1262 137.486 16.7316 137.059 16.4436C136.632 16.1449 136.11 15.9956 135.491 15.9956C134.883 15.9956 134.366 16.1449 133.939 16.4436C133.512 16.7316 133.187 17.1262 132.963 17.6276C132.739 18.1289 132.627 18.7049 132.627 19.3556C132.627 20.0062 132.739 20.5876 132.963 21.0996C133.187 21.6009 133.512 21.9956 133.939 22.2836C134.366 22.5716 134.883 22.7156 135.491 22.7156Z" fill="#EEEEEE"/>
<g clip-path="url(#clip0_508_528)">
<path d="M158.427 14.4469C159.126 14.3982 160.362 14.4014 161.778 14.9048C163.242 15.4243 164.214 16.2347 164.718 16.721C165.072 17.1163 165.492 17.6593 165.867 18.359C166.272 19.1127 166.497 19.8082 166.626 20.3442C166.663 20.6336 166.683 20.9942 166.649 21.4055C166.619 21.7704 166.553 22.0871 166.482 22.346C166.359 21.9448 166.165 21.4462 165.856 20.9107C165.562 20.3998 165.244 19.9959 164.969 19.6921C164.639 19.3005 164.184 18.8319 163.582 18.3756C162.939 17.8882 162.322 17.5625 161.83 17.3447C161.367 17.2105 160.7 17.0708 159.893 17.0751C159.126 17.0789 158.49 17.2115 158.039 17.341C157.936 17.2479 157.788 17.0938 157.668 16.8686C157.626 16.7879 157.483 16.5027 157.473 16.1069C157.458 15.4927 157.775 15.053 157.898 14.9016C158.085 14.6694 158.291 14.5272 158.427 14.4469H158.427Z" stroke="white" stroke-width="0.23913" stroke-miterlimit="10"/>
<path d="M163.643 15.2743C164.002 15.1807 164.175 14.8293 164.597 13.7348C165.132 12.3482 165.462 11.6468 165.571 10.7888C165.669 10.0094 165.638 9.32677 165.571 8.78968C165.565 8.72762 165.52 8.33069 165.157 8.0691C164.827 7.82998 164.468 7.87384 164.397 7.88401C163.902 7.94339 163.288 8.06001 162.608 8.29217C161.877 8.542 161.286 8.8512 160.844 9.12456C161.059 9.36582 161.324 9.71193 161.551 10.1693C161.765 10.5989 161.879 10.9931 161.942 11.2954C162.07 11.9828 162.018 12.5124 161.951 12.8623C161.796 13.6647 161.457 14.0541 161.679 14.4628C161.797 14.6822 162.025 14.7838 162.479 14.9876C162.945 15.1968 163.312 15.361 163.643 15.2743Z" stroke="white" stroke-width="0.23913" stroke-miterlimit="10"/>
<path d="M165.788 17.4736C166.043 17.495 166.126 17.289 166.876 16.9595C166.935 16.9338 166.987 16.9119 167.106 16.8589C167.331 16.7589 167.547 16.6578 167.756 16.5556C168.268 16.3095 168.819 16.0142 169.393 15.6601C169.868 15.3669 170.299 15.07 170.685 14.7822C170.725 14.7576 170.782 14.7159 170.832 14.6501C170.877 14.5918 170.923 14.5073 170.949 14.3441C170.988 14.0884 170.944 13.8493 170.907 13.7048C170.706 12.9415 170.271 11.7089 169.276 10.4801C168.62 9.66916 167.923 9.11121 167.379 8.74316C167.377 9.22462 167.349 9.76545 167.274 10.3534C167.196 10.9686 167.082 11.5228 166.957 12.0074C166.902 12.2182 166.819 12.5237 166.685 12.8938C166.573 13.2063 166.385 13.7284 166.08 14.2376C165.428 15.3289 164.785 15.4514 164.809 16.0816C164.821 16.3774 164.973 16.6321 165.07 16.7942C165.235 17.0702 165.459 17.4452 165.788 17.473L165.788 17.4736Z" stroke="white" stroke-width="0.23913" stroke-miterlimit="10"/>
<path d="M167.192 18.4284C167.011 18.2925 166.925 18.0801 166.908 17.8645C166.903 17.7527 166.908 17.6971 166.933 17.6227C166.967 17.52 167.044 17.3579 167.189 17.2188C167.305 17.106 167.446 17.0305 167.591 16.9792C168.133 16.7695 168.727 16.5036 169.356 16.158C169.999 15.8087 170.688 15.3465 171.19 14.9603C171.22 14.9394 171.248 14.9282 171.273 14.9357C171.296 14.9421 171.317 14.9646 171.336 14.9961C171.708 15.6835 172.08 16.3784 172.452 17.068C172.576 17.3103 172.779 17.4874 173.013 17.6409C173.43 17.9084 173.951 17.9865 174.43 17.8918C174.878 17.8298 175.338 17.7073 175.757 17.5361C175.889 17.4836 176.027 17.4173 176.152 17.3595C176.178 17.3494 176.2 17.3462 176.216 17.3547C176.255 17.3745 176.249 17.4783 176.249 17.5666C176.246 17.6789 176.227 17.8041 176.197 17.9164C176.148 18.0946 176.08 18.2203 176.037 18.3005C175.929 18.5049 175.813 18.6488 175.75 18.7221C175.657 18.8301 175.576 18.9243 175.44 19.02C175.287 19.1286 175.167 19.1661 174.972 19.3298C174.872 19.4148 174.86 19.4426 174.854 19.4667C174.815 19.6422 175.108 19.8428 175.271 19.9091C175.523 20.0193 175.802 20.0364 176.056 19.9792C176.701 19.8353 177.744 19.4218 178.449 18.9558C179.575 18.1973 180.584 17.3044 181.692 16.5234C181.892 16.3929 182.278 16.1431 182.448 16.0329C182.551 15.966 182.681 15.8793 182.804 15.9125C182.897 15.9526 182.866 16.0757 182.828 16.157C182.626 16.6411 182.305 17.2413 181.926 17.7752C181.065 18.9473 179.914 20.0113 178.799 20.9737C178.366 21.3315 177.845 21.7734 177.555 22.0607C177.21 22.387 176.792 22.862 176.592 23.1151C176.566 23.145 176.53 23.1884 176.516 23.1204C176.418 22.3501 175.997 21.4824 175.417 20.902C174.671 20.1199 173.58 19.4303 172.395 19.4373C172.058 19.4416 171.747 19.4501 171.512 19.5667C171.4 19.6224 171.314 19.7577 171.118 19.8059C171.032 19.8273 170.932 19.8342 170.757 19.8043C170.417 19.747 170.167 19.6176 170.058 19.5593C169.602 19.3185 169.548 19.249 169.278 19.1061C168.999 18.9596 168.678 18.8622 168.036 18.6675C167.691 18.5632 167.4 18.4829 167.191 18.4278L167.192 18.4284Z" stroke="white" stroke-width="0.23913" stroke-miterlimit="10"/>
<path d="M167.209 18.5385C167.218 18.5278 167.276 18.5594 167.332 18.5915C167.553 18.7193 167.709 18.9301 167.785 19.1623C167.872 19.4361 167.832 19.7186 167.812 20.107C167.801 20.3177 167.791 20.5606 167.796 20.7687C167.803 21.1774 167.919 21.3812 168.281 21.5877C168.683 21.8161 168.977 21.9649 169.454 22.1393C169.787 22.2773 170.221 22.2441 170.513 22.0317C170.681 21.8397 170.823 21.5198 170.936 21.2593C171.121 20.8249 171.066 20.6612 171.31 20.367C171.737 19.8994 172.565 19.755 173.22 19.8309C173.763 19.8919 174.178 20.1803 174.602 20.4814C175.284 20.949 175.861 21.5192 176.165 22.3875C176.456 23.2311 176.48 24.4107 175.682 25.1928C175.412 25.4549 175.113 25.7507 174.749 25.8753C174.709 25.877 174.675 25.84 174.652 25.8069C174.486 25.5752 174.292 25.3308 174.065 25.0809C173.607 24.5749 173.066 24.1202 172.532 23.7698C172.385 23.6826 172.229 23.5804 172.067 23.5098C171.981 23.4814 171.936 23.5478 171.99 23.6248C172.3 23.9661 172.679 24.2657 172.901 24.4567C173.253 24.7477 173.597 24.9793 173.834 25.3522C173.959 25.5667 174.112 25.8144 174.112 26.0642C174.095 26.2701 173.854 26.3643 173.682 26.2514C173.015 25.6705 172.318 25.0323 171.531 24.4625C170.666 23.8115 169.766 23.26 168.885 22.7405C168.598 22.5683 168.201 22.3302 167.988 22.2013C167.745 22.0521 167.691 22.0264 167.617 21.9707C167.569 21.9365 167.434 21.8424 167.363 21.752C167.223 21.5856 167.209 21.3208 167.209 21.1346C167.196 20.6125 167.451 20.1787 167.479 19.6368C167.488 19.419 167.465 19.2409 167.401 19.0114C167.353 18.814 167.246 18.6557 167.207 18.5401L167.209 18.5385Z" stroke="white" stroke-width="0.23913" stroke-miterlimit="10"/>
<path d="M175.278 24.3959C175.477 24.9811 174.984 25.6353 174.704 25.6198C174.554 25.6118 174.556 25.4165 174.146 25.0159C173.919 24.7939 173.834 24.7719 173.739 24.5954C173.709 24.5403 173.521 24.1947 173.681 23.9551C173.778 23.8085 173.958 23.771 174.034 23.755C174.447 23.6689 175.098 23.8673 175.278 24.3953V24.3959Z" stroke="white" stroke-width="0.23913" stroke-miterlimit="10"/>
<path d="M170.443 19.8991L169.04 19.1049C168.861 19.0032 168.631 19.0636 168.527 19.2399L168.527 19.2403C168.423 19.4166 168.484 19.642 168.664 19.7438L170.067 20.5379C170.247 20.6397 170.477 20.5793 170.58 20.403L170.581 20.4026C170.684 20.2263 170.623 20.0009 170.443 19.8991Z" stroke="white" stroke-width="0.23913" stroke-miterlimit="10"/>
</g>
<defs>
<clipPath id="clip0_508_528">
<rect width="27" height="20" fill="white" transform="translate(157 7.19556)"/>
</clipPath>
</defs>
</svg>
