<svg width="97" height="35" viewBox="0 0 97 35" fill="none" xmlns="http://www.w3.org/2000/svg">
<path d="M2.208 23.1956H1.44V11.8356H2.208L6.56 22.2676L10.896 11.8356H11.68V23.1956H10.912V16.9716C10.912 16.5022 10.912 16.0916 10.912 15.7396C10.9227 15.3769 10.928 15.0569 10.928 14.7796C10.9387 14.4916 10.9493 14.2409 10.96 14.0276C10.9707 13.8036 10.9813 13.5956 10.992 13.4036L6.944 23.1956H6.176L2.128 13.4516C2.14933 13.6116 2.16533 14.0062 2.176 14.6356C2.19733 15.2542 2.208 16.0329 2.208 16.9716V23.1956ZM16.197 23.3876C15.3757 23.3876 14.7357 23.1796 14.277 22.7636C13.829 22.3476 13.605 21.8142 13.605 21.1636C13.605 20.4596 13.861 19.8942 14.373 19.4676C14.885 19.0409 15.589 18.7902 16.485 18.7156L19.125 18.5076V18.2196C19.125 17.6436 19.0237 17.1956 18.821 16.8756C18.6183 16.5449 18.3463 16.3156 18.005 16.1876C17.6637 16.0596 17.2903 15.9956 16.885 15.9956C16.1703 15.9956 15.6103 16.1556 15.205 16.4756C14.8103 16.7849 14.613 17.2222 14.613 17.7876H13.877C13.877 17.2862 13.9997 16.8542 14.245 16.4916C14.501 16.1182 14.8583 15.8302 15.317 15.6276C15.7757 15.4249 16.3037 15.3236 16.901 15.3236C17.4557 15.3236 17.9517 15.4196 18.389 15.6116C18.837 15.7929 19.1943 16.0916 19.461 16.5076C19.7277 16.9129 19.861 17.4462 19.861 18.1076V23.1956H19.269L19.125 21.7556C18.8583 22.2782 18.469 22.6836 17.957 22.9716C17.445 23.2489 16.8583 23.3876 16.197 23.3876ZM16.293 22.7316C17.1997 22.7316 17.8983 22.4329 18.389 21.8356C18.8797 21.2382 19.125 20.4702 19.125 19.5316V19.1156L16.549 19.3236C15.7703 19.3876 15.205 19.5902 14.853 19.9316C14.5117 20.2729 14.341 20.6782 14.341 21.1476C14.341 21.6702 14.5223 22.0649 14.885 22.3316C15.2477 22.5982 15.717 22.7316 16.293 22.7316ZM24.8329 23.3876C24.0862 23.3876 23.4462 23.2116 22.9129 22.8596C22.3902 22.4969 21.9902 22.0116 21.7129 21.4036C21.4355 20.7956 21.2969 20.1129 21.2969 19.3556C21.2969 18.5982 21.4355 17.9156 21.7129 17.3076C21.9902 16.6996 22.3902 16.2196 22.9129 15.8676C23.4462 15.5049 24.0862 15.3236 24.8329 15.3236C25.5155 15.3236 26.1129 15.4782 26.6249 15.7876C27.1369 16.0862 27.5315 16.5502 27.8089 17.1796V11.6436H28.5449V23.1956H27.9529L27.8409 21.4676C27.5529 22.1182 27.1422 22.6036 26.6089 22.9236C26.0862 23.2329 25.4942 23.3876 24.8329 23.3876ZM24.9129 22.7156C25.5315 22.7156 26.0542 22.5716 26.4809 22.2836C26.9075 21.9956 27.2329 21.6009 27.4569 21.0996C27.6809 20.5876 27.7929 20.0062 27.7929 19.3556C27.7929 18.7049 27.6809 18.1289 27.4569 17.6276C27.2329 17.1262 26.9075 16.7316 26.4809 16.4436C26.0542 16.1449 25.5315 15.9956 24.9129 15.9956C24.3049 15.9956 23.7875 16.1449 23.3609 16.4436C22.9342 16.7316 22.6089 17.1262 22.3849 17.6276C22.1609 18.1289 22.0489 18.7049 22.0489 19.3556C22.0489 20.0062 22.1609 20.5876 22.3849 21.0996C22.6089 21.6009 22.9342 21.9956 23.3609 22.2836C23.7875 22.5716 24.3049 22.7156 24.9129 22.7156ZM33.7823 23.3876C33.0463 23.3876 32.4009 23.2222 31.8463 22.8916C31.2916 22.5502 30.8596 22.0809 30.5503 21.4836C30.2409 20.8756 30.0863 20.1716 30.0863 19.3716C30.0863 18.5716 30.2356 17.8676 30.5343 17.2596C30.8436 16.6516 31.2649 16.1769 31.7983 15.8356C32.3423 15.4942 32.9716 15.3236 33.6863 15.3236C34.3583 15.3236 34.9449 15.4729 35.4463 15.7716C35.9583 16.0702 36.3529 16.4862 36.6303 17.0196C36.9183 17.5422 37.0623 18.1556 37.0623 18.8596V19.3716H30.5023L30.5343 18.7636H36.3103C36.3103 17.9316 36.0703 17.2649 35.5903 16.7636C35.1103 16.2516 34.4756 15.9956 33.6863 15.9956C33.1209 15.9956 32.6196 16.1289 32.1823 16.3956C31.7556 16.6622 31.4196 17.0409 31.1743 17.5316C30.9396 18.0116 30.8223 18.5716 30.8223 19.2116C30.8223 20.3102 31.0836 21.1689 31.6063 21.7876C32.1289 22.4062 32.8543 22.7156 33.7823 22.7156C34.4649 22.7156 35.0196 22.5716 35.4463 22.2836C35.8729 21.9849 36.1609 21.5529 36.3103 20.9876H37.0623C36.8383 21.7769 36.4489 22.3742 35.8943 22.7796C35.3503 23.1849 34.6463 23.3876 33.7823 23.3876ZM42.7566 23.1956V15.5156H43.4926V23.1956H42.7566ZM43.1246 13.1636C42.9433 13.1636 42.7833 13.0996 42.6446 12.9716C42.5166 12.8329 42.4526 12.6782 42.4526 12.5076C42.4526 12.3262 42.5166 12.1662 42.6446 12.0276C42.7833 11.8889 42.9433 11.8196 43.1246 11.8196C43.306 11.8196 43.4606 11.8889 43.5886 12.0276C43.7273 12.1662 43.7966 12.3262 43.7966 12.5076C43.7966 12.6782 43.7273 12.8329 43.5886 12.9716C43.4606 13.0996 43.306 13.1636 43.1246 13.1636ZM46.3445 23.1956H45.6085V15.5156H46.2005L46.3605 17.0036C46.6165 16.4702 46.9898 16.0596 47.4805 15.7716C47.9712 15.4729 48.5045 15.3236 49.0805 15.3236C50.1685 15.3236 50.9365 15.6169 51.3845 16.2036C51.8432 16.7902 52.0725 17.5636 52.0725 18.5236V23.1956H51.3365V18.6676C51.3365 17.6542 51.1285 16.9556 50.7125 16.5716C50.3072 16.1876 49.7578 15.9956 49.0645 15.9956C48.1898 15.9956 47.5178 16.2942 47.0485 16.8916C46.5792 17.4782 46.3445 18.2569 46.3445 19.2276V23.1956Z" fill="#EEEEEE"/>
<path d="M84.2119 6.16504C84.5909 6.16504 84.9344 6.27695 85.1826 6.4707L85.1875 6.47363L85.1934 6.47852L85.2021 6.48535L93.5322 13.0078L93.6621 13.1123C94.4538 13.7529 95.1167 14.5064 95.6328 15.3525C96.1504 16.2006 96.5049 17.115 96.6895 18.0762L96.7578 18.4912C96.8175 18.9231 96.8424 19.3584 96.833 19.79L96.8125 20.2197C96.7656 20.8112 96.6544 21.3957 96.4805 21.9619C96.1287 23.1059 95.5354 24.1557 94.7168 25.082C93.8673 26.0405 92.8289 26.8044 91.6299 27.3516C90.3604 27.9284 88.9957 28.2231 87.5723 28.2266H87.5596C86.1407 28.2266 84.7799 27.9365 83.5146 27.3662C82.3178 26.8255 81.2786 26.0643 80.4258 25.1055C79.6064 24.1841 79.0125 23.1361 78.6602 21.9912C78.5324 21.5738 78.4406 21.0845 78.4004 20.7266L78.3779 20.4199C78.3751 20.2103 78.4002 19.9155 78.4219 19.709L78.4648 19.3057L78.1533 19.5654L73.0723 23.8027C72.638 24.1603 72.1239 24.3525 71.627 24.3525C71.1228 24.3524 70.7073 24.1564 70.4434 23.8115C70.2214 23.5215 70.1272 23.1551 70.1787 22.7441C70.2469 22.1996 70.564 21.6606 71.0596 21.2734L71.0947 21.249L71.0957 21.248L80.5049 14.1533L80.8984 13.8555L80.4053 13.8564L79.3604 13.8594C78.2653 13.8621 77.1686 13.8643 76.0771 13.8643H75.2871C74.8346 13.8642 74.4388 13.6795 74.166 13.3477C73.9061 13.0312 73.7935 12.6217 73.8574 12.2568C73.9331 11.8239 74.153 11.483 74.4873 11.248C74.824 11.0115 75.2863 10.8751 75.8535 10.875L86.2217 10.8828H86.6885L86.3242 10.5898L84.7119 9.27148C84.1686 8.8241 83.6249 8.37665 83.0801 7.93848H83.0811C82.8358 7.73234 82.7187 7.47953 82.7285 7.22852C82.738 6.99175 82.8576 6.75573 83.0879 6.55762L83.1934 6.47559C83.4707 6.27717 83.8326 6.16505 84.2119 6.16504ZM87.665 13.4072C84.4111 13.4072 81.7451 15.8163 81.7451 18.8193C81.7451 21.8227 84.411 24.2324 87.665 24.2324C90.9189 24.2322 93.5841 21.8226 93.584 18.8193C93.584 15.8164 90.9189 13.4074 87.665 13.4072ZM87.6602 15.585C88.494 15.5851 89.2555 15.8856 89.8213 16.376C90.3607 16.8435 90.7271 17.4888 90.8066 18.2197L90.8184 18.3672C90.8625 19.1821 90.5442 19.9408 89.9795 20.5049C89.4049 21.0797 88.5826 21.4423 87.6602 21.4424C86.7379 21.4424 85.9147 21.0798 85.3398 20.5049C84.7756 19.941 84.4582 19.1824 84.502 18.3682C84.545 17.5765 84.923 16.8746 85.498 16.376C86.0638 15.8855 86.8262 15.585 87.6602 15.585Z" stroke="white" stroke-width="0.329278"/>
</svg>
