<svg width="94" height="58" viewBox="0 0 94 58" fill="none" xmlns="http://www.w3.org/2000/svg">
<rect x="8.11508" y="14.5594" width="28.7698" height="35.2143" stroke="white" stroke-width="0.230159"/>
<rect x="31.1307" y="13.1786" width="3.9127" height="1.15079" stroke="white" stroke-width="0.230159"/>
<rect x="30.2088" y="8.11508" width="5.75397" height="4.83333" stroke="white" stroke-width="0.230159"/>
<circle cx="22.7331" cy="33.7777" r="9.55159" stroke="white" stroke-width="0.230159"/>
<path d="M57.496 27.4043V38.4443H56.728V27.4043H57.496ZM53.16 27.7883V27.0843H61.064V27.7883H53.16ZM65.1227 32.7803L61.0587 27.0843H61.9707L64.4028 30.4763C64.6907 30.871 64.9254 31.2177 65.1068 31.5163C65.2881 31.8043 65.4321 32.0443 65.5388 32.2363L69.1227 27.0843H69.9868L66.0027 32.7483L70.0668 38.4443H69.1548L66.5947 34.8763C66.4348 34.663 66.2534 34.407 66.0508 34.1083C65.8481 33.799 65.6881 33.5537 65.5708 33.3723L62.0187 38.4443H61.1227L65.1227 32.7803ZM70.9469 34.6043V33.9323H75.3629V34.6043H70.9469ZM78.1989 31.1323L81.2069 27.0843H82.1189L78.7909 31.4843L78.7269 31.4203C79.1535 31.143 79.5269 30.9563 79.8469 30.8603C80.1775 30.7537 80.5242 30.7003 80.8869 30.7003C81.6762 30.7003 82.3642 30.8763 82.9509 31.2283C83.5482 31.5803 84.0069 32.055 84.3269 32.6523C84.6575 33.2497 84.8229 33.9163 84.8229 34.6523C84.8229 35.4097 84.6469 36.0923 84.2949 36.7003C83.9429 37.2977 83.4682 37.7723 82.8709 38.1243C82.2735 38.4657 81.6069 38.6363 80.8709 38.6363C80.1349 38.6363 79.4629 38.4603 78.8549 38.1083C78.2575 37.7563 77.7775 37.2817 77.4149 36.6843C77.0629 36.0763 76.8869 35.399 76.8869 34.6523C76.8869 34.215 76.9242 33.815 76.9989 33.4523C77.0842 33.0897 77.2229 32.7217 77.4149 32.3483C77.6069 31.975 77.8682 31.5697 78.1989 31.1323ZM77.6549 34.6523C77.6549 35.2817 77.7882 35.8417 78.0549 36.3323C78.3322 36.823 78.7109 37.2123 79.1909 37.5003C79.6815 37.7777 80.2415 37.9163 80.8709 37.9163C81.4895 37.9163 82.0389 37.7777 82.5189 37.5003C82.9989 37.2123 83.3722 36.823 83.6389 36.3323C83.9162 35.8417 84.0549 35.2817 84.0549 34.6523C84.0549 34.023 83.9162 33.4683 83.6389 32.9883C83.3722 32.4977 82.9989 32.1137 82.5189 31.8363C82.0389 31.559 81.4895 31.4203 80.8709 31.4203C80.2415 31.4203 79.6815 31.559 79.1909 31.8363C78.7109 32.1137 78.3322 32.4977 78.0549 32.9883C77.7882 33.4683 77.6549 34.023 77.6549 34.6523Z" fill="#EEEEEE"/>
</svg>
