<svg width="98" height="41" viewBox="0 0 98 41" fill="none" xmlns="http://www.w3.org/2000/svg">
<path d="M23.1528 0.543213L0.382812 20.0432L22.9228 39.5432L23.1528 30.4896H46.3828V10.9896H23.1528V0.543213Z" stroke="white" stroke-width="0.5"/>
<path d="M65.9828 26.5432L62.6228 15.1832H63.4228L65.9508 23.7912C66.0255 24.0472 66.0948 24.3139 66.1588 24.5912C66.2228 24.8685 66.2921 25.1725 66.3668 25.5032C66.4628 25.1299 66.5481 24.8152 66.6228 24.5592C66.7081 24.3032 66.7881 24.0472 66.8628 23.7912L69.6308 15.1832H70.3988L73.1828 23.7912C73.2681 24.0579 73.3481 24.3299 73.4228 24.6072C73.5081 24.8845 73.5881 25.1779 73.6628 25.4872C73.7481 25.0925 73.8228 24.7565 73.8868 24.4792C73.9615 24.2019 74.0255 23.9725 74.0788 23.7912L76.6388 15.1832H77.4228L74.0308 26.5432H73.3268L70.0148 16.3032L66.7188 26.5432H65.9828ZM77.1872 22.7032C77.1872 21.9245 77.3525 21.2365 77.6832 20.6392C78.0139 20.0312 78.4672 19.5512 79.0432 19.1992C79.6192 18.8472 80.2699 18.6712 80.9952 18.6712C81.7312 18.6712 82.3819 18.8472 82.9472 19.1992C83.5232 19.5512 83.9765 20.0312 84.3072 20.6392C84.6379 21.2365 84.8032 21.9245 84.8032 22.7032C84.8032 23.4712 84.6379 24.1592 84.3072 24.7672C83.9765 25.3752 83.5232 25.8552 82.9472 26.2072C82.3819 26.5592 81.7312 26.7352 80.9952 26.7352C80.2699 26.7352 79.6192 26.5592 79.0432 26.2072C78.4672 25.8552 78.0139 25.3752 77.6832 24.7672C77.3525 24.1592 77.1872 23.4712 77.1872 22.7032ZM77.9392 22.7032C77.9392 23.3539 78.0672 23.9352 78.3232 24.4472C78.5899 24.9485 78.9525 25.3432 79.4112 25.6312C79.8699 25.9192 80.3979 26.0632 80.9952 26.0632C81.5925 26.0632 82.1205 25.9192 82.5792 25.6312C83.0379 25.3432 83.3952 24.9485 83.6512 24.4472C83.9179 23.9352 84.0512 23.3539 84.0512 22.7032C84.0512 22.0419 83.9179 21.4605 83.6512 20.9592C83.3952 20.4579 83.0379 20.0632 82.5792 19.7752C82.1205 19.4872 81.5925 19.3432 80.9952 19.3432C80.3979 19.3432 79.8699 19.4872 79.4112 19.7752C78.9525 20.0632 78.5899 20.4579 78.3232 20.9592C78.0672 21.4605 77.9392 22.0419 77.9392 22.7032ZM89.9978 18.7512V19.3912H89.4218C88.7071 19.3912 88.1365 19.6259 87.7098 20.0952C87.2831 20.5539 87.0698 21.1459 87.0698 21.8712V26.5432H86.3338V18.8632H87.0218L87.1018 20.3352H87.0218C87.1285 19.8339 87.3898 19.4339 87.8058 19.1352C88.2325 18.8259 88.7391 18.6712 89.3258 18.6712C89.4431 18.6712 89.5498 18.6765 89.6458 18.6872C89.7525 18.6979 89.8698 18.7192 89.9978 18.7512ZM92.0169 26.5432H91.2809V14.9912H92.0169V23.1672L96.1929 18.8632H97.1369L94.1609 21.9352L97.1689 26.5432H96.3209L93.6649 22.4312L92.0169 24.1432V26.5432Z" fill="#EEEEEE"/>
</svg>
